<mxfile host="app.diagrams.net" modified="2022-12-30T13:27:09.315Z" agent="5.0 (Macintosh; Intel Mac OS X 10_15_7) AppleWebKit/537.36 (KHTML, like Gecko) Chrome/108.0.0.0 Safari/537.36" version="20.7.4" etag="TEzsHbohd8jxFMfR9Cx9" type="github">
  <diagram id="fz0t1YrUKTSbPXALbJ4M" name="Page-1">
    <mxGraphModel dx="1546" dy="884" grid="1" gridSize="10" guides="1" tooltips="1" connect="1" arrows="1" fold="1" page="1" pageScale="1" pageWidth="850" pageHeight="1100" math="0" shadow="0">
      <root>
        <mxCell id="0" />
        <mxCell id="1" parent="0" />
        <mxCell id="x7Efz7FVhLquu_ME2Ms_-13" value="" style="edgeStyle=entityRelationEdgeStyle;rounded=0;orthogonalLoop=1;jettySize=auto;html=1;startArrow=none;endArrow=none;segment=10;curved=1;sourcePerimeterSpacing=0;targetPerimeterSpacing=0;" edge="1" parent="1" source="x7Efz7FVhLquu_ME2Ms_-11" target="x7Efz7FVhLquu_ME2Ms_-12">
          <mxGeometry relative="1" as="geometry" />
        </mxCell>
        <mxCell id="x7Efz7FVhLquu_ME2Ms_-11" value="To implement sync&amp;nbsp; with stargate with NLB change IP addresses&lt;br&gt;" style="ellipse;whiteSpace=wrap;html=1;align=center;newEdgeStyle={&quot;edgeStyle&quot;:&quot;entityRelationEdgeStyle&quot;,&quot;startArrow&quot;:&quot;none&quot;,&quot;endArrow&quot;:&quot;none&quot;,&quot;segment&quot;:10,&quot;curved&quot;:1,&quot;sourcePerimeterSpacing&quot;:0,&quot;targetPerimeterSpacing&quot;:0};treeFolding=1;treeMoving=1;" vertex="1" parent="1">
          <mxGeometry x="110" y="180" width="200" height="110" as="geometry" />
        </mxCell>
        <mxCell id="x7Efz7FVhLquu_ME2Ms_-15" value="" style="edgeStyle=orthogonalEdgeStyle;rounded=0;orthogonalLoop=1;jettySize=auto;html=1;" edge="1" parent="1" source="x7Efz7FVhLquu_ME2Ms_-12" target="x7Efz7FVhLquu_ME2Ms_-14">
          <mxGeometry relative="1" as="geometry" />
        </mxCell>
        <UserObject label="Check the option with Lambda" link="https://registry.terraform.io/providers/hashicorp/aws/latest/docs/data-sources/lambda_invocation" id="x7Efz7FVhLquu_ME2Ms_-12">
          <mxCell style="whiteSpace=wrap;html=1;" vertex="1" parent="1">
            <mxGeometry x="370" y="240" width="120" height="60" as="geometry" />
          </mxCell>
        </UserObject>
        <mxCell id="x7Efz7FVhLquu_ME2Ms_-17" value="" style="edgeStyle=orthogonalEdgeStyle;rounded=0;orthogonalLoop=1;jettySize=auto;html=1;" edge="1" parent="1" source="x7Efz7FVhLquu_ME2Ms_-14" target="x7Efz7FVhLquu_ME2Ms_-16">
          <mxGeometry relative="1" as="geometry" />
        </mxCell>
        <mxCell id="x7Efz7FVhLquu_ME2Ms_-14" value="Update dynamodb" style="whiteSpace=wrap;html=1;" vertex="1" parent="1">
          <mxGeometry x="570" y="240" width="120" height="60" as="geometry" />
        </mxCell>
        <mxCell id="x7Efz7FVhLquu_ME2Ms_-16" value="EventBridge to cause event triggering GitHub pipeline ? Or at least notify a change" style="whiteSpace=wrap;html=1;" vertex="1" parent="1">
          <mxGeometry x="570" y="380" width="120" height="110" as="geometry" />
        </mxCell>
      </root>
    </mxGraphModel>
  </diagram>
</mxfile>
